<?xml version="1.0" standalone="no"?>
<!DOCTYPE svg PUBLIC "-//W3C//DTD SVG 20010904//EN"
 "http://www.w3.org/TR/2001/REC-SVG-20010904/DTD/svg10.dtd">
<svg version="1.0" xmlns="http://www.w3.org/2000/svg"
 width="400.000000pt" height="400.000000pt" viewBox="0 0 400.000000 400.000000"
 preserveAspectRatio="xMidYMid meet">
<metadata>
Created by potrace 1.14, written by Peter Selinger 2001-2017
</metadata>
<g transform="translate(0.000000,400.000000) scale(0.100000,-0.100000)"
fill="#000000" stroke="none">
<path d="M1360 2005 l0 -715 145 0 145 0 0 216 0 217 112 116 c62 64 115 117
118 118 3 2 93 -148 200 -332 l195 -334 189 -1 c149 0 186 3 178 13 -16 20
-552 848 -555 857 -1 4 119 132 266 284 l269 276 -195 0 -195 0 -288 -314
-289 -314 -3 314 -2 314 -145 0 -145 0 0 -715z"/>
</g>
</svg>
